<svg width="41" height="41" viewBox="0 0 41 41" fill="none" xmlns="http://www.w3.org/2000/svg">
<path d="M19 32.0002C17.4491 32.0379 15.9465 31.459 14.8218 30.3905C13.697 29.322 13.0419 27.851 13 26.3002V16.1302C13.0288 15.0091 13.5006 13.9451 14.3122 13.1711C15.1237 12.3971 16.2088 11.9761 17.33 12.0002C18.4529 11.9734 19.5406 12.3932 20.3543 13.1675C21.168 13.9418 21.6412 15.0074 21.67 16.1302V26.3102C21.6284 26.9888 21.3295 27.626 20.8343 28.0918C20.3391 28.5576 19.6849 28.8169 19.005 28.8169C18.3251 28.8169 17.6709 28.5576 17.1757 28.0918C16.6805 27.626 16.3816 26.9888 16.34 26.3102V16.9202C16.34 16.655 16.4454 16.4007 16.6329 16.2131C16.8204 16.0256 17.0748 15.9202 17.34 15.9202C17.6052 15.9202 17.8596 16.0256 18.0471 16.2131C18.2346 16.4007 18.34 16.655 18.34 16.9202V26.3102C18.3599 26.4726 18.4386 26.622 18.5611 26.7304C18.6836 26.8387 18.8415 26.8985 19.005 26.8985C19.1685 26.8985 19.3264 26.8387 19.4489 26.7304C19.5714 26.622 19.6501 26.4726 19.67 26.3102V16.1302C19.6389 15.5386 19.3758 14.9832 18.9377 14.5844C18.4996 14.1856 17.9219 13.9757 17.33 14.0002C16.7398 13.9784 16.1647 14.1895 15.7288 14.588C15.2928 14.9865 15.0311 15.5404 15 16.1302V26.3002C15.0416 27.3207 15.486 28.283 16.2357 28.9765C16.9854 29.67 17.9794 30.0381 19 30.0002C20.0206 30.0381 21.0146 29.67 21.7643 28.9765C22.514 28.283 22.9584 27.3207 23 26.3002V16.1302C23 15.865 23.1054 15.6107 23.2929 15.4231C23.4804 15.2356 23.7348 15.1302 24 15.1302C24.2652 15.1302 24.5196 15.2356 24.7071 15.4231C24.8946 15.6107 25 15.865 25 16.1302V26.3002C24.9581 27.851 24.303 29.322 23.1782 30.3905C22.0535 31.459 20.5509 32.0379 19 32.0002Z" fill="#FEF6FB"/>
</svg>
