<svg width="53" height="53" viewBox="0 0 53 53" fill="none" xmlns="http://www.w3.org/2000/svg">
<circle cx="26.75" cy="26.75" r="26.25" fill="#FAD39C"/>
<g clip-path="url(#clip0_134_5606)">
<path d="M35.9167 25.9167H34.2C34.0456 24.5095 33.4935 23.1755 32.6083 22.0708L34.0042 20.6708C34.0813 20.5937 34.1425 20.5021 34.1843 20.4013C34.226 20.3005 34.2475 20.1924 34.2475 20.0833C34.2475 19.9742 34.226 19.8662 34.1843 19.7654C34.1425 19.6646 34.0813 19.573 34.0042 19.4958C33.927 19.4187 33.8354 19.3575 33.7346 19.3157C33.6338 19.274 33.5258 19.2525 33.4167 19.2525C33.3076 19.2525 33.1995 19.274 33.0987 19.3157C32.9979 19.3575 32.9063 19.4187 32.8292 19.4958L31.4292 20.8917C30.3245 20.0065 28.9905 19.4544 27.5833 19.3V17.5833C27.5833 17.3623 27.4955 17.1504 27.3393 16.9941C27.183 16.8378 26.971 16.75 26.75 16.75C26.529 16.75 26.317 16.8378 26.1607 16.9941C26.0045 17.1504 25.9167 17.3623 25.9167 17.5833V19.3C24.5095 19.4544 23.1755 20.0065 22.0708 20.8917L20.6708 19.4958C20.5937 19.4187 20.5021 19.3575 20.4013 19.3157C20.3005 19.274 20.1924 19.2525 20.0833 19.2525C19.9742 19.2525 19.8662 19.274 19.7654 19.3157C19.6646 19.3575 19.573 19.4187 19.4958 19.4958C19.34 19.6516 19.2525 19.863 19.2525 20.0833C19.2525 20.3037 19.34 20.515 19.4958 20.6708L20.8917 22.0708C20.0065 23.1755 19.4544 24.5095 19.3 25.9167H17.5833C17.3623 25.9167 17.1504 26.0045 16.9941 26.1607C16.8378 26.317 16.75 26.529 16.75 26.75C16.75 26.971 16.8378 27.183 16.9941 27.3393C17.1504 27.4955 17.3623 27.5833 17.5833 27.5833H19.3C19.4544 28.9905 20.0065 30.3245 20.8917 31.4292L19.4958 32.8292C19.4187 32.9063 19.3575 32.9979 19.3157 33.0987C19.274 33.1995 19.2525 33.3076 19.2525 33.4167C19.2525 33.5258 19.274 33.6338 19.3157 33.7346C19.3575 33.8354 19.4187 33.927 19.4958 34.0042C19.6516 34.16 19.863 34.2475 20.0833 34.2475C20.1924 34.2475 20.3005 34.226 20.4013 34.1843C20.5021 34.1425 20.5937 34.0813 20.6708 34.0042L22.0708 32.6083C23.1755 33.4935 24.5095 34.0456 25.9167 34.2V35.9167C25.9167 36.1377 26.0045 36.3496 26.1607 36.5059C26.317 36.6622 26.529 36.75 26.75 36.75C26.971 36.75 27.183 36.6622 27.3393 36.5059C27.4955 36.3496 27.5833 36.1377 27.5833 35.9167V34.2C28.9905 34.0456 30.3245 33.4935 31.4292 32.6083L32.8292 34.0042C32.9063 34.0813 32.9979 34.1425 33.0987 34.1843C33.1995 34.226 33.3076 34.2475 33.4167 34.2475C33.5258 34.2475 33.6338 34.226 33.7346 34.1843C33.8354 34.1425 33.927 34.0813 34.0042 34.0042C34.0813 33.927 34.1425 33.8354 34.1843 33.7346C34.226 33.6338 34.2475 33.5258 34.2475 33.4167C34.2475 33.3076 34.226 33.1995 34.1843 33.0987C34.1425 32.9979 34.0813 32.9063 34.0042 32.8292L32.6083 31.4292C33.4935 30.3245 34.0456 28.9905 34.2 27.5833H35.9167C36.1377 27.5833 36.3496 27.4955 36.5059 27.3393C36.6622 27.183 36.75 26.971 36.75 26.75C36.75 26.529 36.6622 26.317 36.5059 26.1607C36.3496 26.0045 36.1377 25.9167 35.9167 25.9167ZM23.2083 25.9167C23.0023 25.9167 22.8009 25.8556 22.6296 25.7411C22.4583 25.6267 22.3248 25.464 22.246 25.2736C22.1671 25.0833 22.1465 24.8738 22.1867 24.6718C22.2269 24.4697 22.3261 24.2841 22.4718 24.1384C22.6174 23.9928 22.8031 23.8935 23.0051 23.8533C23.2072 23.8132 23.4166 23.8338 23.607 23.9126C23.7973 23.9915 23.96 24.125 24.0744 24.2963C24.1889 24.4676 24.25 24.669 24.25 24.875C24.25 25.1513 24.1403 25.4162 23.9449 25.6116C23.7496 25.8069 23.4846 25.9167 23.2083 25.9167ZM28.4167 30.9167C28.0046 30.9167 27.6018 30.7945 27.2592 30.5656C26.9166 30.3366 26.6496 30.0113 26.4919 29.6306C26.3342 29.2499 26.293 28.831 26.3734 28.4269C26.4537 28.0228 26.6522 27.6516 26.9435 27.3602C27.2349 27.0688 27.6061 26.8704 28.0102 26.79C28.4144 26.7096 28.8332 26.7509 29.2139 26.9086C29.5946 27.0663 29.92 27.3333 30.1489 27.6759C30.3778 28.0185 30.5 28.4213 30.5 28.8333C30.4998 29.3858 30.2802 29.9156 29.8896 30.3062C29.4989 30.6969 28.9691 30.9164 28.4167 30.9167Z" fill="#923106"/>
</g>
<defs>
<clipPath id="clip0_134_5606">
<rect width="20" height="20" fill="white" transform="translate(16.75 16.75)"/>
</clipPath>
</defs>
</svg>
