<svg width="32" height="33" viewBox="0 0 32 33" fill="none" xmlns="http://www.w3.org/2000/svg">
<rect y="0.5" width="32" height="32" rx="10" fill="#FEF6FB"/>
<path d="M18 18.5H14V25.5H18V18.5Z" fill="#71207D"/>
<path d="M24.4201 14.6799L16.7101 6.79995C16.6172 6.70622 16.5066 6.63183 16.3847 6.58106C16.2628 6.53029 16.1321 6.50415 16.0001 6.50415C15.8681 6.50415 15.7374 6.53029 15.6155 6.58106C15.4937 6.63183 15.3831 6.70622 15.2901 6.79995L7.58012 14.6899C7.39355 14.878 7.24621 15.1013 7.14664 15.3468C7.04708 15.5922 6.99727 15.8551 7.00012 16.1199V24.4999C6.99934 25.0119 7.19489 25.5046 7.54649 25.8766C7.89809 26.2487 8.37898 26.4718 8.89012 26.4999H12.0001V17.4999C12.0001 17.2347 12.1055 16.9804 12.293 16.7928C12.4805 16.6053 12.7349 16.4999 13.0001 16.4999H19.0001C19.2653 16.4999 19.5197 16.6053 19.7072 16.7928C19.8948 16.9804 20.0001 17.2347 20.0001 17.4999V26.4999H23.1101C23.6213 26.4718 24.1021 26.2487 24.4537 25.8766C24.8053 25.5046 25.0009 25.0119 25.0001 24.4999V16.1199C25.0009 15.5829 24.7929 15.0665 24.4201 14.6799Z" fill="#71207D"/>
</svg>
