<svg width="53" height="53" viewBox="0 0 53 53" fill="none" xmlns="http://www.w3.org/2000/svg">
<circle cx="26.75" cy="26.25" r="26.25" fill="#C5E5FF"/>
<path d="M26.75 18.75C22.6094 18.75 19.25 22.1094 19.25 26.25C19.25 30.3906 22.6094 33.75 26.75 33.75C30.8906 33.75 34.25 30.3906 34.25 26.25C34.25 22.1094 30.8906 18.75 26.75 18.75ZM26.5156 30.625C26.3611 30.625 26.2101 30.5792 26.0816 30.4933C25.9531 30.4075 25.853 30.2855 25.7938 30.1427C25.7347 30 25.7192 29.8429 25.7494 29.6913C25.7795 29.5398 25.8539 29.4006 25.9632 29.2913C26.0725 29.1821 26.2117 29.1077 26.3632 29.0775C26.5148 29.0474 26.6718 29.0628 26.8146 29.122C26.9574 29.1811 27.0794 29.2812 27.1652 29.4097C27.2511 29.5382 27.2969 29.6892 27.2969 29.8438C27.2969 30.051 27.2146 30.2497 27.0681 30.3962C26.9215 30.5427 26.7228 30.625 26.5156 30.625ZM27.8219 26.6406C27.1887 27.0656 27.1016 27.4551 27.1016 27.8125C27.1016 27.9575 27.0439 28.0966 26.9414 28.1992C26.8388 28.3018 26.6997 28.3594 26.5547 28.3594C26.4096 28.3594 26.2705 28.3018 26.168 28.1992C26.0654 28.0966 26.0078 27.9575 26.0078 27.8125C26.0078 26.9566 26.4016 26.2762 27.2117 25.732C27.9648 25.2266 28.3906 24.9063 28.3906 24.202C28.3906 23.723 28.1172 23.3594 27.5512 23.0902C27.418 23.027 27.1215 22.9652 26.7566 22.9695C26.2988 22.9754 25.9434 23.0848 25.6695 23.3051C25.1531 23.7207 25.1094 24.173 25.1094 24.1797C25.1059 24.2515 25.0883 24.3219 25.0577 24.387C25.027 24.452 24.9838 24.5103 24.9306 24.5587C24.8773 24.607 24.8151 24.6444 24.7474 24.6687C24.6797 24.6929 24.6079 24.7037 24.5361 24.7002C24.4643 24.6967 24.3939 24.6792 24.3289 24.6485C24.2638 24.6178 24.2055 24.5746 24.1572 24.5214C24.1088 24.4681 24.0714 24.4059 24.0472 24.3382C24.0229 24.2706 24.0122 24.1988 24.0156 24.127C24.0199 24.032 24.0859 23.177 24.9832 22.4551C25.4484 22.0809 26.0402 21.8863 26.741 21.8777C27.2371 21.8719 27.7031 21.9559 28.0191 22.1051C28.9648 22.5523 29.4844 23.298 29.4844 24.202C29.4844 25.5234 28.6012 26.1168 27.8219 26.6406Z" fill="#2C70A8"/>
</svg>
