<svg width="32" height="33" viewBox="0 0 32 33" fill="none" xmlns="http://www.w3.org/2000/svg">
<rect y="0.5" width="32" height="32" rx="10" fill="#F9D7EF"/>
<path d="M25 8.84009C24.85 8.72093 24.6744 8.63815 24.487 8.59824C24.2996 8.55834 24.1056 8.56239 23.92 8.61009L17 10.3901V24.6601L24.56 22.7201C24.8304 22.6509 25.0699 22.4932 25.2402 22.2721C25.4106 22.051 25.502 21.7792 25.5 21.5001V9.82009C25.4969 9.62943 25.4503 9.44199 25.3636 9.27213C25.277 9.10227 25.1526 8.95448 25 8.84009Z" fill="#71207D"/>
<path d="M15.0001 10.3899L8.06011 8.60988C7.87741 8.56758 7.6876 8.56626 7.50432 8.60603C7.32105 8.6458 7.14885 8.72566 7.00011 8.83988C6.84854 8.95839 6.72637 9.11028 6.64312 9.28373C6.55986 9.45718 6.51777 9.6475 6.52011 9.83988V21.4999C6.52032 21.7773 6.6128 22.0467 6.78298 22.2658C6.95316 22.4849 7.19138 22.6411 7.46011 22.7099L15.0001 24.6599V10.3899Z" fill="#71207D"/>
</svg>
