<svg width="33" height="33" viewBox="0 0 33 33" fill="none" xmlns="http://www.w3.org/2000/svg">
<rect x="0.5" y="0.5" width="32" height="32" rx="10" fill="#F9D7EF"/>
<path d="M22.5 8.5H21.5V7.5C21.5 7.23478 21.3946 6.98043 21.2071 6.79289C21.0196 6.60536 20.7652 6.5 20.5 6.5C20.2348 6.5 19.9804 6.60536 19.7929 6.79289C19.6054 6.98043 19.5 7.23478 19.5 7.5V8.5H13.5V7.5C13.5 7.23478 13.3946 6.98043 13.2071 6.79289C13.0196 6.60536 12.7652 6.5 12.5 6.5C12.2348 6.5 11.9804 6.60536 11.7929 6.79289C11.6054 6.98043 11.5 7.23478 11.5 7.5V8.5H10.5C9.70435 8.5 8.94129 8.81607 8.37868 9.37868C7.81607 9.94129 7.5 10.7044 7.5 11.5V23.5C7.5 24.2956 7.81607 25.0587 8.37868 25.6213C8.94129 26.1839 9.70435 26.5 10.5 26.5H22.5C23.2956 26.5 24.0587 26.1839 24.6213 25.6213C25.1839 25.0587 25.5 24.2956 25.5 23.5V11.5C25.5 10.7044 25.1839 9.94129 24.6213 9.37868C24.0587 8.81607 23.2956 8.5 22.5 8.5ZM12.5 21.5C12.3022 21.5 12.1089 21.4414 11.9444 21.3315C11.78 21.2216 11.6518 21.0654 11.5761 20.8827C11.5004 20.7 11.4806 20.4989 11.5192 20.3049C11.5578 20.1109 11.653 19.9327 11.7929 19.7929C11.9327 19.653 12.1109 19.5578 12.3049 19.5192C12.4989 19.4806 12.7 19.5004 12.8827 19.5761C13.0654 19.6518 13.2216 19.78 13.3315 19.9444C13.4414 20.1089 13.5 20.3022 13.5 20.5C13.5 20.7652 13.3946 21.0196 13.2071 21.2071C13.0196 21.3946 12.7652 21.5 12.5 21.5ZM20.5 21.5H16.5C16.2348 21.5 15.9804 21.3946 15.7929 21.2071C15.6054 21.0196 15.5 20.7652 15.5 20.5C15.5 20.2348 15.6054 19.9804 15.7929 19.7929C15.9804 19.6054 16.2348 19.5 16.5 19.5H20.5C20.7652 19.5 21.0196 19.6054 21.2071 19.7929C21.3946 19.9804 21.5 20.2348 21.5 20.5C21.5 20.7652 21.3946 21.0196 21.2071 21.2071C21.0196 21.3946 20.7652 21.5 20.5 21.5ZM23.5 15.5H9.5V11.5C9.5 11.2348 9.60536 10.9804 9.79289 10.7929C9.98043 10.6054 10.2348 10.5 10.5 10.5H11.5V11.5C11.5 11.7652 11.6054 12.0196 11.7929 12.2071C11.9804 12.3946 12.2348 12.5 12.5 12.5C12.7652 12.5 13.0196 12.3946 13.2071 12.2071C13.3946 12.0196 13.5 11.7652 13.5 11.5V10.5H19.5V11.5C19.5 11.7652 19.6054 12.0196 19.7929 12.2071C19.9804 12.3946 20.2348 12.5 20.5 12.5C20.7652 12.5 21.0196 12.3946 21.2071 12.2071C21.3946 12.0196 21.5 11.7652 21.5 11.5V10.5H22.5C22.7652 10.5 23.0196 10.6054 23.2071 10.7929C23.3946 10.9804 23.5 11.2348 23.5 11.5V15.5Z" fill="#71207D"/>
</svg>
