<svg width="24" height="24" viewBox="0 0 24 24" fill="none" xmlns="http://www.w3.org/2000/svg">
<circle cx="12" cy="12" r="12" fill="#F9D7EF"/>
<g clip-path="url(#clip0_781_21140)">
<path d="M12.0004 11.5434C12.3621 11.5434 12.7156 11.4361 13.0163 11.2352C13.3171 11.0343 13.5514 10.7487 13.6898 10.4146C13.8282 10.0804 13.8644 9.71277 13.7939 9.35807C13.7233 9.00336 13.5492 8.67754 13.2934 8.42181C13.0377 8.16608 12.7119 7.99192 12.3572 7.92137C12.0025 7.85081 11.6348 7.88702 11.3007 8.02542C10.9666 8.16382 10.681 8.3982 10.48 8.6989C10.2791 8.99961 10.1719 9.35315 10.1719 9.7148C10.1719 10.1998 10.3645 10.6649 10.7075 11.0078C11.0504 11.3507 11.5155 11.5434 12.0004 11.5434Z" fill="#71207D"/>
<path d="M14.7432 16.1147C14.8644 16.1147 14.9807 16.0665 15.0664 15.9808C15.1521 15.895 15.2003 15.7788 15.2003 15.6575C15.2003 14.8088 14.8632 13.9949 14.263 13.3948C13.6629 12.7947 12.849 12.4575 12.0003 12.4575C11.1516 12.4575 10.3377 12.7947 9.73755 13.3948C9.13743 13.9949 8.80029 14.8088 8.80029 15.6575C8.80029 15.7788 8.84846 15.895 8.93419 15.9808C9.01992 16.0665 9.13619 16.1147 9.25744 16.1147H14.7432Z" fill="#71207D"/>
</g>
<defs>
<clipPath id="clip0_781_21140">
<rect width="10.9714" height="10.9714" fill="white" transform="translate(6.51465 6.51465)"/>
</clipPath>
</defs>
</svg>
