<svg width="82" height="82" viewBox="0 0 82 82" fill="none" xmlns="http://www.w3.org/2000/svg">
<circle cx="41" cy="41" r="41" fill="#F9D7EF"/>
<g clip-path="url(#clip0_404_17808)">
<path d="M31.0474 35.4499C32.127 35.1685 33.1918 35.877 33.4407 36.9764L34.5734 42.7416C34.5944 42.8506 34.656 42.9476 34.7458 43.0129C34.8356 43.0781 34.9469 43.1068 35.0571 43.0931C35.1442 43.0829 35.2262 43.0467 35.2925 42.9892C35.3588 42.9317 35.4063 42.8556 35.4288 42.7709L39.2211 28.6176C39.4461 27.7779 40.3851 27.3766 41.2254 27.6018C42.0658 27.8269 42.6319 28.6315 42.4068 29.4712L39.873 38.9277C39.8237 39.1037 39.8449 39.2921 39.9322 39.4527C40.0195 39.6134 40.1661 39.7337 40.3406 39.788C40.4285 39.8133 40.5204 39.8209 40.6112 39.8103C40.702 39.7996 40.7897 39.771 40.8693 39.7261C40.9489 39.6811 41.0187 39.6208 41.0747 39.5485C41.1307 39.4762 41.1717 39.3936 41.1953 39.3053L44.5115 26.9293C44.7365 26.0896 45.5601 25.6574 46.4005 25.8826C47.2408 26.1078 47.755 26.8984 47.53 27.7382L44.2197 40.0923C44.1703 40.2684 44.1916 40.4568 44.2789 40.6174C44.3662 40.7781 44.5127 40.8983 44.6873 40.9527C44.7751 40.978 44.8671 40.9856 44.9579 40.975C45.0487 40.9643 45.1364 40.9357 45.216 40.8908C45.2956 40.8458 45.3654 40.7854 45.4214 40.7132C45.4774 40.6409 45.5184 40.5582 45.542 40.47L48.3405 30.0259C48.5655 29.1861 49.458 28.7724 50.2983 28.9976C51.1387 29.2227 51.6886 30.0877 51.4636 30.9274L48.4283 42.2553C48.3789 42.4314 48.4002 42.6197 48.4875 42.7804C48.5748 42.941 48.7213 43.0613 48.8959 43.1157C48.9837 43.141 49.0757 43.1486 49.1665 43.1379C49.2573 43.1273 49.345 43.0987 49.4246 43.0537C49.5042 43.0088 49.574 42.9484 49.63 42.8761C49.6859 42.8039 49.7269 42.7212 49.7506 42.6329L51.7726 35.0866C51.9976 34.2469 52.8297 33.817 53.6701 34.0421C54.5105 34.2673 55.0213 35.0655 54.7911 35.8954L51.2971 48.9354C49.3978 56.0235 44.1034 58.3959 38.7908 56.9724L37.8249 56.7136C32.5123 55.2901 31.48 52.4512 31.038 49.201L29.6262 37.8876C29.5153 36.6932 29.9685 35.7309 31.0474 35.4499Z" fill="#71207D"/>
</g>
<defs>
<clipPath id="clip0_404_17808">
<rect width="32" height="32" fill="white" transform="translate(25 25)"/>
</clipPath>
</defs>
</svg>
