<svg width="53" height="53" viewBox="0 0 53 53" fill="none" xmlns="http://www.w3.org/2000/svg">
<circle cx="26.25" cy="26.75" r="26.25" fill="#DEF0FF"/>
<g clip-path="url(#clip0_134_5718)">
<path d="M34.5831 25.7668H34.5826L27.9143 25.7684L27.9131 19.1018C27.9129 18.6598 27.7373 18.236 27.4248 17.9235C27.1122 17.6111 26.6883 17.4355 26.2464 17.4355C26.0275 17.4355 25.8107 17.4786 25.6085 17.5624C25.4062 17.6462 25.2225 17.769 25.0677 17.9238C24.913 18.0786 24.7902 18.2624 24.7065 18.4647C24.6227 18.6669 24.5797 18.8837 24.5797 19.1026L24.581 25.7693L17.916 25.7705C17.4739 25.7706 17.05 25.9462 16.7375 26.2588C16.425 26.5714 16.2495 26.9954 16.2495 27.4374C16.2496 27.8794 16.4252 28.3033 16.7378 28.6158C17.0504 28.9284 17.4744 29.1039 17.9164 29.1038H17.9168L24.5818 29.1018L24.5831 35.7684C24.5831 36.2105 24.7586 36.6344 25.0712 36.9469C25.3838 37.2595 25.8077 37.4351 26.2497 37.4351H26.2501C26.469 37.435 26.6857 37.3919 26.8879 37.3081C27.0901 37.2243 27.2738 37.1015 27.4285 36.9466C27.5833 36.7918 27.706 36.6081 27.7897 36.4059C27.8734 36.2036 27.9164 35.9869 27.9164 35.768L27.9151 29.1013L34.5831 29.1001C35.0251 29.1 35.449 28.9244 35.7615 28.6118C36.074 28.2992 36.2496 27.8753 36.2495 27.4332C36.2495 26.9912 36.0738 26.5673 35.7612 26.2548C35.4486 25.9423 35.0247 25.7667 34.5826 25.7668H34.5831Z" fill="#1A4263"/>
</g>
<defs>
<clipPath id="clip0_134_5718">
<rect width="20" height="20" fill="white" transform="translate(16.25 17.4345)"/>
</clipPath>
</defs>
</svg>
