<svg width="17" height="16" viewBox="0 0 17 16" fill="none" xmlns="http://www.w3.org/2000/svg">
<path d="M16.8563 9.88313C16.8752 9.77105 16.8447 9.65576 16.7614 9.5499C16.5959 9.33939 16.2495 9.20587 15.8708 9.20587L11.8378 9.20587L11.8378 1.22745C11.8378 0.549284 10.9505 -2.58385e-07 9.85513 -3.06266e-07L7.87251 -3.9293e-07C6.77711 -4.40811e-07 5.88989 0.549283 5.88989 1.22745L5.88989 9.20587L1.85301 9.20587C1.47333 9.20587 1.12792 9.33939 0.962374 9.54989C0.893974 9.63582 0.861695 9.72815 0.861695 9.8196C0.861694 9.954 0.93107 10.0873 1.06886 10.1972L8.07968 15.7639C8.26803 15.913 8.55364 16 8.85995 16C9.16627 16 9.4548 15.913 9.64216 15.7639L16.653 10.1972C16.7695 10.1045 16.8373 9.99521 16.8563 9.88313Z" fill="white"/>
</svg>
