<svg width="62" height="62" viewBox="0 0 62 62" fill="none" xmlns="http://www.w3.org/2000/svg">
<circle cx="31.25" cy="30.8822" r="30.75" fill="#FDD4FF"/>
<path d="M16.8827 18.0761C16.619 18.0893 16.3869 18.2555 16.2919 18.5192C16.1627 18.87 16.3421 19.2787 16.6928 19.4053C18.5705 20.091 17.8928 25.6583 17.389 28.8784C17.5077 28.8573 17.6264 28.8362 17.7477 28.8362C18.0958 28.8362 18.4308 28.8494 18.7604 28.8573C19.3802 24.8776 19.9841 19.1521 17.157 18.1183C17.0699 18.0867 16.9697 18.0709 16.8827 18.0761ZM45.6184 18.0761C45.5313 18.0709 45.4311 18.0867 45.3441 18.1183C42.5143 19.1521 43.1182 24.875 43.7406 28.8573C44.0729 28.8494 44.4026 28.8362 44.7533 28.8362C44.8747 28.8362 44.996 28.8573 45.112 28.8784C44.6109 25.6583 43.9331 20.091 45.8082 19.4053C46.159 19.2787 46.3357 18.87 46.2091 18.5192C46.1142 18.2555 45.8821 18.0893 45.6184 18.0761ZM17.7477 30.1865C17.4233 30.1865 17.1517 30.4159 17.0937 30.735L17.0093 31.1781C16.7825 32.3385 16.3974 34.2742 16.3974 36.9379C16.3974 40.1896 18.6048 43.6893 23.4653 43.6893C26.5747 43.6893 27.8036 42.2599 28.782 41.1153C29.5178 40.2556 30.0453 39.6384 31.2505 39.6384C32.5375 39.6384 33.2206 40.361 34.0777 41.263C35.1115 42.3469 36.3985 43.6893 39.0357 43.6893C43.8962 43.6893 46.1036 40.1896 46.1036 36.9379C46.1036 34.2769 45.7318 32.4123 45.4918 31.1781L45.4074 30.735C45.3494 30.4159 45.0777 30.1865 44.7533 30.1865C36.5593 30.1865 34.0961 32.8791 32.6219 34.4905C31.9969 35.1762 31.6725 35.5032 31.2505 35.5032C30.8813 35.5032 30.6387 35.2738 30.069 34.5749C28.7319 32.9371 26.5008 30.1865 17.7477 30.1865Z" fill="#B131B8"/>
</svg>
