<svg width="58" height="59" viewBox="0 0 58 59" fill="none" xmlns="http://www.w3.org/2000/svg">
<rect y="0.771484" width="57.25" height="57.25" rx="28.625" fill="#D82632"/>
<path d="M28.625 19.3965C26.6472 19.3965 24.7138 19.983 23.0693 21.0818C21.4248 22.1806 20.1431 23.7424 19.3862 25.5696C18.6293 27.3969 18.4313 29.4076 18.8172 31.3474C19.203 33.2872 20.1554 35.069 21.5539 36.4676C22.9525 37.8661 24.7343 38.8185 26.6741 39.2043C28.6139 39.5902 30.6246 39.3922 32.4518 38.6353C34.2791 37.8784 35.8409 36.5967 36.9397 34.9522C38.0385 33.3077 38.625 31.3743 38.625 29.3965C38.625 28.0833 38.3663 26.7829 37.8638 25.5696C37.3613 24.3564 36.6247 23.254 35.6961 22.3254C34.7675 21.3968 33.6651 20.6602 32.4518 20.1577C31.2386 19.6551 29.9382 19.3965 28.625 19.3965ZM28.625 34.3965C28.4272 34.3965 28.2339 34.3378 28.0694 34.228C27.905 34.1181 27.7768 33.9619 27.7011 33.7792C27.6254 33.5964 27.6056 33.3954 27.6442 33.2014C27.6828 33.0074 27.778 32.8292 27.9179 32.6894C28.0578 32.5495 28.2359 32.4543 28.4299 32.4157C28.6239 32.3771 28.825 32.3969 29.0077 32.4726C29.1904 32.5483 29.3466 32.6765 29.4565 32.8409C29.5664 33.0054 29.625 33.1987 29.625 33.3965C29.625 33.6617 29.5196 33.9161 29.3321 34.1036C29.1446 34.2911 28.8902 34.3965 28.625 34.3965ZM29.625 30.3965C29.625 30.6617 29.5196 30.9161 29.3321 31.1036C29.1446 31.2911 28.8902 31.3965 28.625 31.3965C28.3598 31.3965 28.1054 31.2911 27.9179 31.1036C27.7304 30.9161 27.625 30.6617 27.625 30.3965V25.3965C27.625 25.1313 27.7304 24.8769 27.9179 24.6894C28.1054 24.5018 28.3598 24.3965 28.625 24.3965C28.8902 24.3965 29.1446 24.5018 29.3321 24.6894C29.5196 24.8769 29.625 25.1313 29.625 25.3965V30.3965Z" fill="white"/>
</svg>
