<svg width="62" height="62" viewBox="0 0 62 62" fill="none" xmlns="http://www.w3.org/2000/svg">
<circle cx="31.25" cy="30.8822" r="30.75" fill="#C5E5FF"/>
<path d="M45.1858 33.9433L43.277 34.6468C42.637 34.8826 42.2125 35.4917 42.2125 36.1733V39.828C42.2125 42.0734 40.3916 43.8943 38.1462 43.8943H37.3329C36.4343 43.8943 35.7064 44.6222 35.7064 45.5209C35.7064 46.4195 34.9785 47.1474 34.0799 47.1474H22.6943C21.7956 47.1474 21.0677 46.4195 21.0677 45.5209V43.4999C21.0677 40.8601 20.013 37.9787 18.5442 35.813C17.0746 33.6465 16.25 30.7667 16.25 27.9235C16.2492 20.8132 20.2138 14.617 29.5679 14.617C38.7431 14.617 41.8433 19.9373 42.6533 26.084C42.6842 26.3206 42.7655 26.5483 42.8948 26.7484L45.9884 31.5336C46.5545 32.4087 46.1633 33.583 45.1858 33.9433Z" fill="#388ED4"/>
</svg>
