<svg width="62" height="62" viewBox="0 0 62 62" fill="none" xmlns="http://www.w3.org/2000/svg">
<circle cx="31.25" cy="30.8822" r="30.75" fill="#DDDEFF"/>
<path d="M29.091 19.5555C28.8148 19.5555 28.5911 19.7793 28.5911 20.0555V20.9129C28.5329 20.8992 28.4754 20.8848 28.4172 20.8698C28.1497 20.8004 27.8772 20.9617 27.8085 21.2292C27.7397 21.4967 27.9004 21.7692 28.1679 21.8379C28.2748 21.8647 29.3756 22.0756 29.591 22.1073C31.0008 22.3153 32.5423 22.2857 34.3326 21.8379C34.6001 21.7692 34.7608 21.4967 34.692 21.2292C34.6233 20.9617 34.3508 20.8011 34.0833 20.8698C34.0251 20.8848 33.9677 20.8992 33.9096 20.9129V20.0555C33.9096 19.7793 33.6858 19.5555 33.4096 19.5555H29.091ZM39.3812 21.0069C37.9597 20.9971 36.4769 21.4669 35.102 22.5436C34.9848 22.6355 34.9095 22.7803 34.9095 22.9385V24.792C34.9095 24.9471 34.9784 25.0967 35.103 25.1891C35.6132 25.5674 35.8221 26.2223 35.6469 26.8162C35.5777 27.0511 35.6801 27.3048 35.903 27.4061C37.31 28.0451 38.3138 29.6984 37.8625 31.4613C38.2923 31.891 38.4741 32.706 38.1162 33.5087C37.8712 34.0587 37.0813 35.2187 34.7208 35.523C34.3827 36.0318 34.0858 36.5705 33.8321 37.1374C33.4976 37.884 32.8571 38.4406 32.0959 38.6816C31.8259 38.7672 31.6809 39.0604 31.7765 39.3266C33.1792 43.2428 37.2725 43.2279 38.8887 38.9041C40.6002 34.3223 44.904 34.4456 45.9447 30.5976C47.3573 25.3809 43.6454 21.0362 39.3812 21.0069ZM23.2754 21.0101C18.9563 20.9387 15.1225 25.3038 16.5559 30.5976C17.5967 34.4456 21.9004 34.3223 23.6119 38.9041C25.2304 43.234 29.3166 43.2363 30.7202 39.3372C30.8171 39.0685 30.6684 38.7741 30.3953 38.6904C29.6391 38.46 28.9749 37.9067 28.6291 37.1286C28.3785 36.5636 28.0848 36.0261 27.7492 35.5186C25.4118 35.2087 24.6281 34.0562 24.3843 33.5087C24.0575 32.7756 24.1568 31.9725 24.6361 31.4631C24.1989 29.7493 25.1446 28.0665 26.5957 27.4141C26.8211 27.3127 26.9255 27.0578 26.8549 26.8209C26.6784 26.2291 26.8834 25.5704 27.3975 25.1891C27.5221 25.0967 27.5911 24.9471 27.5911 24.792V22.9385C27.5911 22.8135 27.5442 22.6948 27.4623 22.6035C27.4193 22.555 27.3388 22.495 27.241 22.4236C25.9651 21.4696 24.5975 21.0319 23.2754 21.0101ZM29.0653 23.0472C28.806 23.0611 28.5911 23.2738 28.5911 23.5461V25.9521C28.5329 25.9378 28.4754 25.9234 28.4172 25.9084C28.1497 25.8397 27.8772 26.0009 27.8085 26.2678C27.7397 26.5353 27.9004 26.8078 28.1679 26.8771C29.7285 27.2672 31.3245 27.3794 32.9096 27.1452C33.0739 27.121 34.1686 26.9181 34.3326 26.8771C34.6001 26.8078 34.7608 26.5352 34.692 26.2677C34.6233 26.0008 34.3508 25.8396 34.0833 25.9083C34.0251 25.9233 33.9677 25.9377 33.9096 25.9514V23.5462C33.9096 23.2349 33.6286 23.0017 33.3217 23.0541C31.9017 23.2966 30.5059 23.2797 29.1786 23.0539C29.1402 23.0474 29.1023 23.0452 29.0653 23.0472ZM21.4417 24.2429C21.6189 24.2374 21.7936 24.3268 21.8894 24.4909C22.0282 24.729 21.9475 25.0353 21.7094 25.1747C21.6352 25.2171 21.5449 25.2865 21.3844 25.2865C21.2163 25.2865 21.0519 25.2015 20.9576 25.0471C20.8138 24.8115 20.8876 24.504 21.1232 24.3597C21.1507 24.3434 21.1782 24.3266 21.2057 24.311C21.2801 24.2674 21.3611 24.2453 21.4417 24.2429ZM20.0713 25.5377C20.1675 25.5388 20.2644 25.5678 20.3494 25.6266C20.5769 25.7835 20.6331 26.0953 20.4763 26.3221C19.8732 27.194 19.6352 28.2846 19.8052 29.3927C19.847 29.6658 19.6601 29.9213 19.387 29.9632C19.1047 30.0045 18.8573 29.8107 18.817 29.5445C18.6077 28.1827 18.9052 26.8359 19.6539 25.7534C19.7523 25.6112 19.9108 25.5359 20.0713 25.5377ZM34.4484 28.0984C34.013 28.1053 33.5841 28.2315 33.2083 28.4658C32.0265 29.2033 30.4966 29.2082 29.3104 28.4789C28.2448 27.8233 26.8661 28.0621 26.103 29.0333L26.0517 29.0983C25.2399 30.132 25.3892 31.6176 26.3917 32.4813C27.7541 33.655 28.8147 35.0818 29.5434 36.7223C29.8384 37.3873 30.501 37.8154 31.2328 37.8154C31.9657 37.8154 32.6261 37.3844 32.919 36.7286C33.6559 35.0824 34.7263 33.6531 36.1006 32.4807C37.1025 31.6257 37.2644 30.1421 36.462 29.1083C35.9173 28.4065 35.1739 28.0869 34.4484 28.0984ZM29.245 30.8839C29.3412 30.8864 29.4378 30.9167 29.5222 30.977L29.8509 31.2119C30.2466 31.4952 30.0441 32.1188 29.5598 32.1188C29.4591 32.1188 29.3579 32.0881 29.2697 32.0256L28.941 31.7906C28.7167 31.63 28.6641 31.3182 28.8247 31.0932C28.9251 30.9529 29.0845 30.8798 29.245 30.8839ZM33.2555 30.8839C33.416 30.8798 33.5754 30.9529 33.6758 31.0932C33.8364 31.3182 33.784 31.63 33.5596 31.7906L33.2308 32.0256C33.0031 32.1871 32.6928 32.1322 32.5334 31.9094C32.3728 31.6844 32.4252 31.3726 32.6496 31.2119L32.9783 30.977C33.0627 30.9167 33.1593 30.8864 33.2555 30.8839ZM30.1235 33.1844C30.2514 33.1844 30.3794 33.2331 30.4772 33.3306L30.5241 33.3775C30.8376 33.692 30.6145 34.2312 30.1703 34.2312C30.0428 34.2312 29.9147 34.1825 29.8172 34.085L29.7703 34.0381C29.5747 33.8425 29.5747 33.5262 29.7703 33.3306C29.8678 33.2331 29.9956 33.1844 30.1235 33.1844ZM32.377 33.1844C32.5049 33.1844 32.6327 33.2331 32.7302 33.3306C32.9258 33.5262 32.9258 33.8425 32.7302 34.0381L32.6833 34.085C32.4879 34.2804 32.1711 34.2795 31.9765 34.085C31.7815 33.8894 31.7815 33.5731 31.9765 33.3775L32.0234 33.3306C32.1212 33.2331 32.2492 33.1844 32.377 33.1844Z" fill="#8C3EEB"/>
</svg>
