<svg width="58" height="59" viewBox="0 0 58 59" fill="none" xmlns="http://www.w3.org/2000/svg">
<rect y="0.771484" width="57.25" height="57.25" rx="28.625" fill="#008B8E"/>
<path d="M28.625 19.3965C26.6472 19.3965 24.7138 19.983 23.0693 21.0818C21.4248 22.1806 20.1431 23.7424 19.3862 25.5696C18.6293 27.3969 18.4313 29.4076 18.8172 31.3474C19.203 33.2872 20.1554 35.069 21.5539 36.4676C22.9525 37.8661 24.7343 38.8185 26.6741 39.2043C28.6139 39.5902 30.6246 39.3922 32.4518 38.6353C34.2791 37.8784 35.8409 36.5967 36.9397 34.9522C38.0385 33.3077 38.625 31.3743 38.625 29.3965C38.625 28.0833 38.3663 26.7829 37.8638 25.5696C37.3613 24.3564 36.6247 23.254 35.6961 22.3254C34.7675 21.3968 33.6651 20.6602 32.4518 20.1577C31.2386 19.6551 29.9382 19.3965 28.625 19.3965ZM32.925 27.0065L28.355 33.0065C28.2618 33.1275 28.1422 33.2256 28.0053 33.2932C27.8683 33.3608 27.7177 33.3961 27.565 33.3965C27.4131 33.3973 27.263 33.3635 27.1261 33.2977C26.9893 33.2318 26.8692 33.1357 26.775 33.0165L24.335 29.9065C24.2542 29.8027 24.1947 29.6841 24.1598 29.5574C24.1249 29.4306 24.1153 29.2982 24.1315 29.1677C24.1478 29.0373 24.1896 28.9113 24.2545 28.797C24.3194 28.6827 24.4063 28.5822 24.51 28.5015C24.7195 28.3384 24.9853 28.2652 25.2487 28.298C25.3792 28.3142 25.5052 28.356 25.6195 28.421C25.7338 28.4859 25.8342 28.5727 25.915 28.6765L27.545 30.7565L31.325 25.7565C31.4051 25.6514 31.5051 25.5632 31.6193 25.4968C31.7336 25.4304 31.8597 25.3871 31.9907 25.3695C32.1216 25.3518 32.2547 25.3601 32.3824 25.3939C32.5101 25.4277 32.6299 25.4864 32.735 25.5665C32.8401 25.6466 32.9283 25.7466 32.9947 25.8608C33.0611 25.975 33.1044 26.1012 33.122 26.2321C33.1397 26.3631 33.1313 26.4962 33.0975 26.6239C33.0637 26.7516 33.0051 26.8714 32.925 26.9765V27.0065Z" fill="white"/>
</svg>
