<svg width="202" height="201" viewBox="0 0 202 201" fill="none" xmlns="http://www.w3.org/2000/svg">
<circle cx="101" cy="100.066" r="100.066" fill="url(#paint0_linear_0_42)"/>
<path d="M100.576 45.6603C97.7019 45.6603 94.9457 46.7899 92.9136 48.8008C90.8814 50.8116 89.7398 53.5388 89.7398 56.3825C89.7398 59.2262 90.8814 61.9535 92.9136 63.9643C94.9457 65.9751 97.7019 67.1048 100.576 67.1048C103.45 67.1048 106.206 65.9751 108.238 63.9643C110.27 61.9535 111.412 59.2262 111.412 56.3825C111.412 53.5388 110.27 50.8116 108.238 48.8008C106.206 46.7899 103.45 45.6603 100.576 45.6603ZM84.3258 72.6167C83.2672 72.6177 82.2321 72.9289 81.3484 73.5117C80.4647 74.0946 79.7712 74.9236 79.3535 75.8963H79.3429L65.2299 108.841C64.0545 111.592 65.3295 114.769 68.0758 115.95C70.822 117.131 74.0043 115.85 75.1852 113.104L81.6915 97.9226L84.3258 116.341V148.45C84.3258 151.44 86.7525 153.867 89.7425 153.867C92.7325 153.867 95.1591 151.44 95.1591 148.45V121.367H105.992V148.45C105.992 151.44 108.419 153.867 111.409 153.867C114.399 153.867 116.826 151.44 116.826 148.45V116.341L119.46 97.9226L125.966 113.104C127.147 115.85 130.33 117.131 133.076 115.95C135.827 114.769 137.103 111.592 135.922 108.841L121.809 75.8963H121.798C121.38 74.9236 120.687 74.0946 119.803 73.5117C118.919 72.9289 117.884 72.6177 116.826 72.6167H84.3258Z" fill="#53258B"/>
<defs>
<linearGradient id="paint0_linear_0_42" x1="101" y1="0" x2="101" y2="200.132" gradientUnits="userSpaceOnUse">
<stop stop-color="#E1C9FF"/>
<stop offset="1" stop-color="#E1C9FF" stop-opacity="0.05"/>
</linearGradient>
</defs>
</svg>
