<svg width="53" height="53" viewBox="0 0 53 53" fill="none" xmlns="http://www.w3.org/2000/svg">
<circle cx="26.75" cy="26.75" r="26.25" fill="#C5E5FF"/>
<path d="M26.75 18.4165C25.1018 18.4165 23.4906 18.9052 22.1202 19.8209C20.7498 20.7366 19.6817 22.0381 19.051 23.5608C18.4202 25.0835 18.2552 26.7591 18.5768 28.3756C18.8983 29.9921 19.692 31.477 20.8574 32.6424C22.0228 33.8078 23.5077 34.6015 25.1242 34.923C26.7407 35.2446 28.4163 35.0796 29.939 34.4488C31.4617 33.8181 32.7632 32.75 33.6789 31.3796C34.5946 30.0092 35.0833 28.398 35.0833 26.7498C35.0833 25.6555 34.8677 24.5719 34.449 23.5608C34.0302 22.5498 33.4163 21.6311 32.6425 20.8573C31.8687 20.0835 30.95 19.4696 29.939 19.0508C28.9279 18.6321 27.8443 18.4165 26.75 18.4165ZM27.5833 30.0832C27.5833 30.3042 27.4955 30.5161 27.3392 30.6724C27.1829 30.8287 26.971 30.9165 26.75 30.9165C26.5289 30.9165 26.317 30.8287 26.1607 30.6724C26.0044 30.5161 25.9166 30.3042 25.9166 30.0832V25.9165C25.9166 25.6955 26.0044 25.4835 26.1607 25.3272C26.317 25.171 26.5289 25.0832 26.75 25.0832C26.971 25.0832 27.1829 25.171 27.3392 25.3272C27.4955 25.4835 27.5833 25.6955 27.5833 25.9165V30.0832ZM26.75 24.2498C26.5851 24.2498 26.424 24.201 26.287 24.1094C26.1499 24.0178 26.0431 23.8877 25.9801 23.7354C25.917 23.5831 25.9005 23.4156 25.9326 23.2539C25.9648 23.0923 26.0442 22.9438 26.1607 22.8272C26.2773 22.7107 26.4257 22.6313 26.5874 22.5992C26.749 22.567 26.9166 22.5835 27.0689 22.6466C27.2211 22.7097 27.3513 22.8165 27.4429 22.9535C27.5344 23.0906 27.5833 23.2517 27.5833 23.4165C27.5833 23.6375 27.4955 23.8495 27.3392 24.0058C27.1829 24.162 26.971 24.2498 26.75 24.2498Z" fill="#2C70A8"/>
</svg>
