<svg width="32" height="32" viewBox="0 0 32 32" fill="none" xmlns="http://www.w3.org/2000/svg">
<rect width="32" height="32" rx="10" fill="#F9D7EF"/>
<path d="M13 15C13.7911 15 14.5645 14.7654 15.2223 14.3259C15.8801 13.8864 16.3928 13.2616 16.6955 12.5307C16.9983 11.7998 17.0775 10.9956 16.9231 10.2196C16.7688 9.44372 16.3878 8.73098 15.8284 8.17157C15.269 7.61216 14.5563 7.2312 13.7804 7.07686C13.0044 6.92252 12.2002 7.00173 11.4693 7.30448C10.7384 7.60723 10.1136 8.11992 9.67412 8.77772C9.2346 9.43552 9 10.2089 9 11C9 12.0609 9.42143 13.0783 10.1716 13.8284C10.9217 14.5786 11.9391 15 13 15Z" fill="#71207D"/>
<path d="M21 17C21.5933 17 22.1734 16.8241 22.6667 16.4944C23.1601 16.1648 23.5446 15.6962 23.7716 15.1481C23.9987 14.5999 24.0581 13.9967 23.9424 13.4147C23.8266 12.8328 23.5409 12.2982 23.1213 11.8787C22.7018 11.4591 22.1672 11.1734 21.5853 11.0576C21.0033 10.9419 20.4001 11.0013 19.8519 11.2284C19.3038 11.4554 18.8352 11.8399 18.5056 12.3333C18.1759 12.8266 18 13.4067 18 14C18 14.7957 18.3161 15.5587 18.8787 16.1213C19.4413 16.6839 20.2044 17 21 17Z" fill="#71207D"/>
<path d="M25 23.9998C25.2652 23.9998 25.5196 23.8945 25.7071 23.7069C25.8946 23.5194 26 23.265 26 22.9998C25.9992 22.0652 25.7365 21.1495 25.2416 20.3567C24.7468 19.5638 24.0396 18.9256 23.2003 18.5143C22.3611 18.103 21.4234 17.9352 20.4936 18.0298C19.5638 18.1245 18.6791 18.4778 17.94 19.0498C16.9605 18.0742 15.7141 17.4104 14.3578 17.1422C13.0016 16.8741 11.5963 17.0135 10.3192 17.5429C9.04213 18.0724 7.95041 18.9681 7.18174 20.1172C6.41307 21.2663 6.00187 22.6173 6 23.9998C6 24.265 6.10536 24.5194 6.29289 24.7069C6.48043 24.8945 6.73478 24.9998 7 24.9998H19C19.2652 24.9998 19.5196 24.8945 19.7071 24.7069C19.8946 24.5194 20 24.265 20 23.9998" fill="#71207D"/>
</svg>
