<svg width="33" height="33" viewBox="0 0 33 33" fill="none" xmlns="http://www.w3.org/2000/svg">
<rect x="0.5" y="0.5" width="32" height="32" rx="10" fill="#F9D7EF"/>
<path d="M16.5 15.5C17.2911 15.5 18.0645 15.2654 18.7223 14.8259C19.3801 14.3864 19.8928 13.7616 20.1955 13.0307C20.4983 12.2998 20.5775 11.4956 20.4231 10.7196C20.2688 9.94372 19.8878 9.23098 19.3284 8.67157C18.769 8.11216 18.0563 7.7312 17.2804 7.57686C16.5044 7.42252 15.7002 7.50173 14.9693 7.80448C14.2384 8.10723 13.6136 8.61992 13.1741 9.27772C12.7346 9.93552 12.5 10.7089 12.5 11.5C12.5 12.5609 12.9214 13.5783 13.6716 14.3284C14.4217 15.0786 15.4391 15.5 16.5 15.5Z" fill="#71207D"/>
<path d="M22.5 25.5C22.7652 25.5 23.0196 25.3946 23.2071 25.2071C23.3946 25.0196 23.5 24.7652 23.5 24.5C23.5 22.6435 22.7625 20.863 21.4497 19.5503C20.137 18.2375 18.3565 17.5 16.5 17.5C14.6435 17.5 12.863 18.2375 11.5503 19.5503C10.2375 20.863 9.5 22.6435 9.5 24.5C9.5 24.7652 9.60536 25.0196 9.79289 25.2071C9.98043 25.3946 10.2348 25.5 10.5 25.5H22.5Z" fill="#71207D"/>
</svg>
