<svg width="53" height="53" viewBox="0 0 53 53" fill="none" xmlns="http://www.w3.org/2000/svg">
<circle cx="26.75" cy="26.25" r="26.25" fill="#DDDEFF"/>
<g clip-path="url(#clip0_797_22384)">
<g clip-path="url(#clip1_797_22384)">
<path d="M32.7498 17.25H20.7498C20.1458 17.2536 19.5569 17.4394 19.0603 17.7831C18.5636 18.1269 18.1823 18.6126 17.9662 19.1766C17.7501 19.7406 17.7092 20.3568 17.8491 20.9444C17.9889 21.532 18.3028 22.0637 18.7498 22.47V32.25C18.7498 33.0456 19.0659 33.8087 19.6285 34.3713C20.1911 34.9339 20.9542 35.25 21.7498 35.25H31.7498C32.5455 35.25 33.3085 34.9339 33.8711 34.3713C34.4337 33.8087 34.7498 33.0456 34.7498 32.25V22.47C35.1968 22.0637 35.5107 21.532 35.6506 20.9444C35.7904 20.3568 35.7496 19.7406 35.5335 19.1766C35.3174 18.6126 34.936 18.1269 34.4394 17.7831C33.9427 17.4394 33.3538 17.2536 32.7498 17.25ZM29.7498 27.38C29.7498 27.6107 29.6582 27.832 29.495 27.9952C29.3318 28.1583 29.1106 28.25 28.8798 28.25H24.6198C24.3891 28.25 24.1678 28.1583 24.0046 27.9952C23.8415 27.832 23.7498 27.6107 23.7498 27.38V27.12C23.7498 26.8893 23.8415 26.668 24.0046 26.5048C24.1678 26.3417 24.3891 26.25 24.6198 26.25H28.8798C29.1106 26.25 29.3318 26.3417 29.495 26.5048C29.6582 26.668 29.7498 26.8893 29.7498 27.12V27.38ZM32.7498 21.25H20.7498C20.4846 21.25 20.2302 21.1446 20.0427 20.9571C19.8552 20.7696 19.7498 20.5152 19.7498 20.25C19.7498 19.9848 19.8552 19.7304 20.0427 19.5429C20.2302 19.3554 20.4846 19.25 20.7498 19.25H32.7498C33.015 19.25 33.2694 19.3554 33.4569 19.5429C33.6445 19.7304 33.7498 19.9848 33.7498 20.25C33.7498 20.5152 33.6445 20.7696 33.4569 20.9571C33.2694 21.1446 33.015 21.25 32.7498 21.25Z" fill="#2A2F9E"/>
</g>
</g>
<defs>
<clipPath id="clip0_797_22384">
<rect width="24" height="24" fill="white" transform="translate(14.75 14.25)"/>
</clipPath>
<clipPath id="clip1_797_22384">
<rect width="24" height="24" fill="white" transform="translate(14.75 14.25)"/>
</clipPath>
</defs>
</svg>
