<svg width="32" height="33" viewBox="0 0 32 33" fill="none" xmlns="http://www.w3.org/2000/svg">
<rect y="0.5" width="32" height="32" rx="10" fill="#F9D7EF"/>
<path d="M16 18C16.8284 18 17.5 17.3284 17.5 16.5C17.5 15.6716 16.8284 15 16 15C15.1716 15 14.5 15.6716 14.5 16.5C14.5 17.3284 15.1716 18 16 18Z" fill="#71207D"/>
<path d="M24.32 13.87H23.23C23.09 13.87 22.99 13.76 22.93 13.61C22.8943 13.5549 22.8753 13.4907 22.8753 13.425C22.8753 13.3593 22.8943 13.2951 22.93 13.24L23.74 12.5C23.8987 12.3473 24.0249 12.164 24.1108 11.9612C24.1968 11.7584 24.2407 11.5403 24.24 11.32C24.2398 11.0984 24.1955 10.879 24.1096 10.6747C24.0238 10.4704 23.8981 10.2853 23.74 10.13L22.4 8.76C22.2448 8.60368 22.0602 8.47962 21.8568 8.39497C21.6534 8.31031 21.4353 8.26672 21.215 8.26672C20.9947 8.26672 20.7766 8.31031 20.5732 8.39497C20.3698 8.47962 20.1852 8.60368 20.03 8.76L19.26 9.5C19.1988 9.5392 19.1277 9.56004 19.055 9.56004C18.9823 9.56004 18.9112 9.5392 18.85 9.5C18.7896 9.47748 18.7369 9.43827 18.6979 9.38692C18.659 9.33558 18.6354 9.27422 18.63 9.21V8.18C18.6302 7.74297 18.4601 7.32306 18.1557 7.00939C17.8514 6.69573 17.4368 6.51301 17 6.5H15.06C14.6135 6.49999 14.1852 6.67667 13.8685 6.99145C13.5519 7.30623 13.3726 7.73352 13.37 8.18V9.27C13.37 9.41 13.26 9.51 13.11 9.57C13.0549 9.60573 12.9907 9.62474 12.925 9.62474C12.8593 9.62474 12.7951 9.60573 12.74 9.57L12 8.76C11.6833 8.44517 11.2565 8.26586 10.81 8.26C10.5899 8.26043 10.3721 8.30489 10.1695 8.39076C9.96682 8.47663 9.7834 8.60217 9.63 8.76L8.26 10.1C8.09911 10.2557 7.97118 10.4422 7.88381 10.6483C7.79644 10.8545 7.75142 11.0761 7.75142 11.3C7.75142 11.5239 7.79644 11.7455 7.88381 11.9517C7.97118 12.1578 8.09911 12.3443 8.26 12.5L9 13.24C9.0392 13.3012 9.06004 13.3723 9.06004 13.445C9.06004 13.5177 9.0392 13.5888 9 13.65C8.97748 13.7104 8.93827 13.7631 8.88692 13.8021C8.83558 13.841 8.77422 13.8646 8.71 13.87H7.68C7.23444 13.87 6.80712 14.047 6.49206 14.3621C6.177 14.6771 6 15.1044 6 15.55V17.44C5.99999 17.8865 6.17667 18.3148 6.49145 18.6315C6.80623 18.9481 7.23352 19.1274 7.68 19.13H8.77C8.91 19.13 9.01 19.24 9.07 19.39C9.10573 19.4451 9.12474 19.5093 9.12474 19.575C9.12474 19.6407 9.10573 19.7049 9.07 19.76L8.26 20.5C7.94517 20.8167 7.76586 21.2435 7.76 21.69C7.75966 21.9117 7.80372 22.1312 7.8896 22.3356C7.97547 22.54 8.10142 22.7251 8.26 22.88L9.6 24.24C9.75522 24.3963 9.93984 24.5204 10.1432 24.605C10.3466 24.6897 10.5647 24.7333 10.785 24.7333C11.0053 24.7333 11.2234 24.6897 11.4268 24.605C11.6302 24.5204 11.8148 24.3963 11.97 24.24L12.74 23.5C12.8012 23.4608 12.8723 23.44 12.945 23.44C13.0177 23.44 13.0888 23.4608 13.15 23.5C13.2104 23.5225 13.2631 23.5617 13.3021 23.6131C13.341 23.6644 13.3646 23.7258 13.37 23.79V24.88C13.3855 25.3151 13.5694 25.7271 13.8828 26.0293C14.1962 26.3315 14.6146 26.5003 15.05 26.5H16.94C17.3865 26.5 17.8148 26.3233 18.1315 26.0086C18.4481 25.6938 18.6274 25.2665 18.63 24.82V23.73C18.63 23.59 18.74 23.49 18.89 23.43C18.9451 23.3943 19.0093 23.3753 19.075 23.3753C19.1407 23.3753 19.2049 23.3943 19.26 23.43L20.02 24.2C20.3367 24.5148 20.7635 24.6941 21.21 24.7C21.4301 24.6996 21.6479 24.6551 21.8505 24.5692C22.0532 24.4834 22.2366 24.3578 22.39 24.2L23.73 22.86C23.8863 22.7048 24.0104 22.5202 24.095 22.3168C24.1797 22.1134 24.2233 21.8953 24.2233 21.675C24.2233 21.4547 24.1797 21.2366 24.095 21.0332C24.0104 20.8298 23.8863 20.6452 23.73 20.49L23 19.76C22.9643 19.7049 22.9453 19.6407 22.9453 19.575C22.9453 19.5093 22.9643 19.4451 23 19.39C23.0225 19.3296 23.0617 19.2769 23.1131 19.2379C23.1644 19.199 23.2258 19.1754 23.29 19.17H24.38C24.8134 19.1545 25.2239 18.9721 25.5259 18.6608C25.8278 18.3496 25.9977 17.9336 26 17.5V15.56C26 15.1135 25.8233 14.6852 25.5086 14.3685C25.1938 14.0519 24.7665 13.8726 24.32 13.87ZM16 20C15.3078 20 14.6311 19.7947 14.0555 19.4101C13.4799 19.0256 13.0313 18.4789 12.7664 17.8394C12.5015 17.1999 12.4322 16.4961 12.5673 15.8172C12.7023 15.1383 13.0356 14.5146 13.5251 14.0251C14.0146 13.5356 14.6383 13.2023 15.3172 13.0673C15.9961 12.9322 16.6999 13.0015 17.3394 13.2664C17.9789 13.5313 18.5256 13.9799 18.9101 14.5555C19.2947 15.1311 19.5 15.8078 19.5 16.5C19.5 17.4283 19.1313 18.3185 18.4749 18.9749C17.8185 19.6313 16.9283 20 16 20Z" fill="#71207D"/>
</svg>
