<svg width="32" height="33" viewBox="0 0 32 33" fill="none" xmlns="http://www.w3.org/2000/svg">
<rect y="0.5" width="32" height="32" rx="10" fill="#F9D7EF"/>
<g clip-path="url(#clip0_831_3511)">
<path d="M22.0001 7.5H10.0001C9.39605 7.50358 8.80718 7.6894 8.31052 8.03315C7.81385 8.3769 7.43251 8.86257 7.21641 9.42661C7.0003 9.99065 6.95949 10.6068 7.09931 11.1944C7.23913 11.782 7.55307 12.3137 8.00006 12.72V22.5C8.00006 23.2956 8.31613 24.0587 8.87874 24.6213C9.44135 25.1839 10.2044 25.5 11.0001 25.5H21.0001C21.7957 25.5 22.5588 25.1839 23.1214 24.6213C23.684 24.0587 24.0001 23.2956 24.0001 22.5V12.72C24.447 12.3137 24.761 11.782 24.9008 11.1944C25.0406 10.6068 24.9998 9.99065 24.7837 9.42661C24.5676 8.86257 24.1863 8.3769 23.6896 8.03315C23.1929 7.6894 22.6041 7.50358 22.0001 7.5ZM19.0001 17.63C19.0001 17.8607 18.9084 18.082 18.7452 18.2452C18.5821 18.4083 18.3608 18.5 18.1301 18.5H13.8701C13.6393 18.5 13.418 18.4083 13.2549 18.2452C13.0917 18.082 13.0001 17.8607 13.0001 17.63V17.37C13.0001 17.1393 13.0917 16.918 13.2549 16.7548C13.418 16.5917 13.6393 16.5 13.8701 16.5H18.1301C18.3608 16.5 18.5821 16.5917 18.7452 16.7548C18.9084 16.918 19.0001 17.1393 19.0001 17.37V17.63ZM22.0001 11.5H10.0001C9.73484 11.5 9.48049 11.3946 9.29295 11.2071C9.10542 11.0196 9.00006 10.7652 9.00006 10.5C9.00006 10.2348 9.10542 9.98043 9.29295 9.79289C9.48049 9.60536 9.73484 9.5 10.0001 9.5H22.0001C22.2653 9.5 22.5196 9.60536 22.7072 9.79289C22.8947 9.98043 23.0001 10.2348 23.0001 10.5C23.0001 10.7652 22.8947 11.0196 22.7072 11.2071C22.5196 11.3946 22.2653 11.5 22.0001 11.5Z" fill="#71207D"/>
</g>
<defs>
<clipPath id="clip0_831_3511">
<rect width="24" height="24" fill="white" transform="translate(4 4.5)"/>
</clipPath>
</defs>
</svg>
