<svg width="17" height="17" viewBox="0 0 17 17" fill="none" xmlns="http://www.w3.org/2000/svg">
<path d="M14.9154 5.08632C14.9219 5.23592 14.9219 5.37872 14.9219 5.52832C14.9285 10.0639 11.5962 15.2999 5.5022 15.2999C3.70484 15.2999 1.94028 14.7627 0.424988 13.7563C0.687376 13.7903 0.949764 13.8039 1.21215 13.8039C2.70121 13.8039 4.1509 13.2871 5.32509 12.3283C3.90819 12.3011 2.66185 11.3423 2.22891 9.94153C2.72745 10.0435 3.2391 10.0231 3.72452 9.88033C2.18299 9.56753 1.0744 8.15993 1.06784 6.52112C1.06784 6.50752 1.06784 6.49392 1.06784 6.48032C1.52702 6.74552 2.04524 6.89512 2.57001 6.90872C1.12032 5.90232 0.667697 3.89631 1.5467 2.32551C3.23254 4.47432 5.71211 5.77312 8.37535 5.91592C8.10641 4.72592 8.47375 3.47471 9.33307 2.63151C10.6647 1.33271 12.7638 1.40071 14.0233 2.78111C14.7645 2.63151 15.4795 2.34591 16.1289 1.94471C15.8797 2.74031 15.3614 3.41351 14.6727 3.84191C15.3286 3.76031 15.9715 3.57671 16.575 3.30471C16.1289 3.99831 15.5648 4.59672 14.9154 5.08632Z" fill="white"/>
</svg>
