<svg width="17" height="17" viewBox="0 0 17 17" fill="none" xmlns="http://www.w3.org/2000/svg">
<path d="M16.6498 4.41248C16.4538 3.68431 15.8797 3.11018 15.1515 2.91413C13.8212 2.55005 8.49996 2.55005 8.49996 2.55005C8.49996 2.55005 3.17873 2.55005 1.84843 2.90013C1.13426 3.09618 0.546126 3.68431 0.350081 4.41248C0 5.74279 0 8.50142 0 8.50142C0 8.50142 0 11.2741 0.350081 12.5904C0.546126 13.3185 1.12026 13.8927 1.84843 14.0887C3.19274 14.4528 8.49996 14.4528 8.49996 14.4528C8.49996 14.4528 13.8212 14.4528 15.1515 14.1027C15.8797 13.9067 16.4538 13.3325 16.6498 12.6044C16.9999 11.2741 16.9999 8.51543 16.9999 8.51543C16.9999 8.51543 17.0139 5.74279 16.6498 4.41248Z" fill="white"/>
<path d="M6.80554 11.0501L11.2306 8.50147L6.80554 5.95288V11.0501Z" fill="#212121"/>
</svg>
