<svg width="96" height="96" viewBox="0 0 96 96" fill="none" xmlns="http://www.w3.org/2000/svg">
<circle cx="48" cy="48" r="47.75" fill="#F9D7EF"/>
<path d="M48 31.5416C44.7448 31.5416 41.5628 32.5069 38.8562 34.3154C36.1496 36.1238 34.0401 38.6943 32.7944 41.7016C31.5488 44.709 31.2228 48.0182 31.8579 51.2108C32.4929 54.4034 34.0604 57.336 36.3622 59.6378C38.6639 61.9395 41.5965 63.507 44.7891 64.1421C47.9817 64.7771 51.2909 64.4512 54.2983 63.2055C57.3057 61.9598 59.8761 59.8503 61.6846 57.1437C63.493 54.4372 64.4583 51.2551 64.4583 48C64.4583 45.8386 64.0326 43.6984 63.2055 41.7016C62.3784 39.7048 61.1661 37.8905 59.6378 36.3622C58.1095 34.8339 56.2951 33.6216 54.2983 32.7944C52.3015 31.9673 50.1613 31.5416 48 31.5416ZM49.6458 54.5833C49.6458 55.0198 49.4724 55.4384 49.1637 55.7471C48.8551 56.0557 48.4365 56.2291 48 56.2291C47.5635 56.2291 47.1448 56.0557 46.8362 55.7471C46.5275 55.4384 46.3541 55.0198 46.3541 54.5833V46.3541C46.3541 45.9176 46.5275 45.499 46.8362 45.1903C47.1448 44.8817 47.5635 44.7083 48 44.7083C48.4365 44.7083 48.8551 44.8817 49.1637 45.1903C49.4724 45.499 49.6458 45.9176 49.6458 46.3541V54.5833ZM48 43.0625C47.6745 43.0625 47.3562 42.9659 47.0856 42.7851C46.8149 42.6042 46.604 42.3472 46.4794 42.0465C46.3548 41.7457 46.3223 41.4148 46.3858 41.0955C46.4493 40.7763 46.606 40.483 46.8362 40.2528C47.0664 40.0227 47.3596 39.8659 47.6789 39.8024C47.9981 39.7389 48.3291 39.7715 48.6298 39.8961C48.9305 40.0206 49.1876 40.2316 49.3684 40.5022C49.5493 40.7729 49.6458 41.0911 49.6458 41.4166C49.6458 41.8531 49.4724 42.2718 49.1637 42.5804C48.8551 42.8891 48.4365 43.0625 48 43.0625Z" fill="#71207D"/>
</svg>
