<svg width="32" height="32" viewBox="0 0 32 32" fill="none" xmlns="http://www.w3.org/2000/svg">
<rect width="32" height="32" rx="10" fill="#F9D7EF"/>
<path d="M23.0701 8.93002C21.4293 7.27852 19.2638 6.25124 16.9467 6.02526C14.6297 5.79929 12.3065 6.3888 10.3775 7.69215C8.44854 8.99551 7.03475 10.931 6.37988 13.165C5.72501 15.399 5.87009 17.7915 6.79012 19.93C6.88601 20.1288 6.91747 20.3525 6.88012 20.57L6.00012 24.8C5.96621 24.9622 5.97314 25.1303 6.02027 25.2891C6.06739 25.4479 6.15325 25.5926 6.27012 25.71C6.36592 25.8051 6.47999 25.8799 6.60545 25.9297C6.73091 25.9795 6.86516 26.0035 7.00012 26H7.20012L11.4801 25.14C11.6976 25.1139 11.9182 25.1449 12.1201 25.23C14.2586 26.15 16.6511 26.2951 18.8851 25.6403C21.1191 24.9854 23.0546 23.5716 24.358 21.6426C25.6613 19.7137 26.2508 17.3904 26.0249 15.0734C25.7989 12.7564 24.7716 10.5908 23.1201 8.95002L23.0701 8.93002ZM12.0001 17C11.8023 17 11.609 16.9414 11.4445 16.8315C11.2801 16.7216 11.1519 16.5654 11.0762 16.3827C11.0006 16.2 10.9807 15.9989 11.0193 15.8049C11.0579 15.611 11.1532 15.4328 11.293 15.2929C11.4329 15.1531 11.611 15.0578 11.805 15.0192C11.999 14.9807 12.2001 15.0005 12.3828 15.0761C12.5655 15.1518 12.7217 15.28 12.8316 15.4445C12.9415 15.6089 13.0001 15.8022 13.0001 16C13.0001 16.2652 12.8948 16.5196 12.7072 16.7071C12.5197 16.8947 12.2653 17 12.0001 17ZM16.0001 17C15.8023 17 15.609 16.9414 15.4445 16.8315C15.2801 16.7216 15.1519 16.5654 15.0762 16.3827C15.0006 16.2 14.9807 15.9989 15.0193 15.8049C15.0579 15.611 15.1532 15.4328 15.293 15.2929C15.4329 15.1531 15.611 15.0578 15.805 15.0192C15.999 14.9807 16.2001 15.0005 16.3828 15.0761C16.5655 15.1518 16.7217 15.28 16.8316 15.4445C16.9415 15.6089 17.0001 15.8022 17.0001 16C17.0001 16.2652 16.8948 16.5196 16.7072 16.7071C16.5197 16.8947 16.2653 17 16.0001 17ZM20.0001 17C19.8023 17 19.609 16.9414 19.4445 16.8315C19.2801 16.7216 19.1519 16.5654 19.0762 16.3827C19.0006 16.2 18.9807 15.9989 19.0193 15.8049C19.0579 15.611 19.1532 15.4328 19.293 15.2929C19.4329 15.1531 19.611 15.0578 19.805 15.0192C19.999 14.9807 20.2001 15.0005 20.3828 15.0761C20.5655 15.1518 20.7217 15.28 20.8316 15.4445C20.9415 15.6089 21.0001 15.8022 21.0001 16C21.0001 16.2652 20.8948 16.5196 20.7072 16.7071C20.5197 16.8947 20.2653 17 20.0001 17Z" fill="#71207D"/>
</svg>
