<svg width="53" height="54" viewBox="0 0 53 54" fill="none" xmlns="http://www.w3.org/2000/svg">
<circle cx="26.75" cy="26.8154" r="26.25" fill="#DDDEFF"/>
<path d="M33.25 19.4999H32.625V18.8925C32.625 18.5562 32.3664 18.2675 32.0301 18.2507C31.9456 18.2467 31.8611 18.2598 31.7818 18.2893C31.7026 18.3188 31.6301 18.3642 31.5688 18.4225C31.5076 18.4809 31.4588 18.5511 31.4255 18.6289C31.3922 18.7066 31.375 18.7903 31.375 18.8749V19.4999H22.625V18.8925C22.625 18.5562 22.3664 18.2675 22.0301 18.2507C21.9456 18.2467 21.8611 18.2598 21.7818 18.2893C21.7026 18.3188 21.6301 18.3642 21.5688 18.4225C21.5076 18.4809 21.4588 18.5511 21.4255 18.6289C21.3922 18.7066 21.375 18.7903 21.375 18.8749V19.4999H20.75C20.087 19.4999 19.4511 19.7633 18.9822 20.2322C18.5134 20.701 18.25 21.3369 18.25 21.9999V22.4687C18.25 22.5101 18.2665 22.5499 18.2958 22.5792C18.3251 22.6085 18.3648 22.6249 18.4062 22.6249H35.5938C35.6352 22.6249 35.6749 22.6085 35.7042 22.5792C35.7335 22.5499 35.75 22.5101 35.75 22.4687V21.9999C35.75 21.3369 35.4866 20.701 35.0178 20.2322C34.5489 19.7633 33.913 19.4999 33.25 19.4999ZM35.5938 23.8749H18.4062C18.3648 23.8749 18.3251 23.8914 18.2958 23.9207C18.2665 23.95 18.25 23.9898 18.25 24.0312V33.2499C18.25 33.913 18.5134 34.5489 18.9822 35.0177C19.4511 35.4865 20.087 35.7499 20.75 35.7499H33.25C33.913 35.7499 34.5489 35.4865 35.0178 35.0177C35.4866 34.5489 35.75 33.913 35.75 33.2499V24.0312C35.75 23.9898 35.7335 23.95 35.7042 23.9207C35.6749 23.8914 35.6352 23.8749 35.5938 23.8749ZM26.3586 32.6679C25.8832 33.0433 25.2355 33.2499 24.5344 33.2499C23.4457 33.2499 22.6406 32.5406 22.282 31.9335C22.1976 31.7908 22.1733 31.6203 22.2146 31.4597C22.2558 31.299 22.3592 31.1613 22.502 31.0769C22.6447 30.9925 22.8152 30.9682 22.9758 31.0094C23.1365 31.0507 23.2742 31.1541 23.3586 31.2968C23.4008 31.3687 23.7941 31.9999 24.5344 31.9999C25.1852 31.9999 25.9453 31.7152 25.9453 30.9132C25.9453 30.6691 25.8977 30.3292 25.6719 30.0976C25.3383 29.7562 24.7832 29.6027 24.4957 29.6027C24.3299 29.6027 24.171 29.5368 24.0538 29.4196C23.9366 29.3024 23.8707 29.1434 23.8707 28.9777C23.8707 28.8119 23.9366 28.6529 24.0538 28.5357C24.171 28.4185 24.3299 28.3527 24.4957 28.3527C24.6852 28.3527 25.1758 28.2511 25.4832 27.9367C25.5664 27.8549 25.632 27.757 25.6761 27.649C25.7203 27.541 25.7419 27.4252 25.7398 27.3085C25.7398 26.4011 24.6215 26.3749 24.4941 26.3749C23.8168 26.3749 23.5645 26.7894 23.5539 26.807C23.5133 26.8798 23.4585 26.9437 23.3929 26.995C23.3272 27.0464 23.2519 27.084 23.1714 27.1058C23.0909 27.1276 23.0069 27.1331 22.9243 27.1219C22.8417 27.1107 22.7622 27.0831 22.6904 27.0408C22.6186 26.9984 22.556 26.9421 22.5063 26.8752C22.4566 26.8083 22.4208 26.7321 22.401 26.6511C22.3812 26.5701 22.3777 26.486 22.3909 26.4037C22.4041 26.3214 22.4336 26.2426 22.4777 26.1718C22.7762 25.664 23.4629 25.1249 24.4941 25.1249C25.1363 25.1249 25.7348 25.3113 26.1789 25.6492C26.702 26.0476 26.9898 26.6367 26.9898 27.3085C26.9916 27.5871 26.9382 27.8632 26.8327 28.121C26.7271 28.3788 26.5716 28.6131 26.375 28.8105C26.3301 28.8566 26.2828 28.8996 26.2348 28.9413C26.3521 29.0261 26.4621 29.1206 26.5637 29.2238C26.9762 29.6456 27.1941 30.2296 27.1941 30.9132C27.1953 31.6187 26.898 32.2417 26.3586 32.6679ZM31.375 32.4687C31.375 32.6345 31.3092 32.7934 31.1919 32.9106C31.0747 33.0278 30.9158 33.0937 30.75 33.0937C30.5842 33.0937 30.4253 33.0278 30.3081 32.9106C30.1908 32.7934 30.125 32.6345 30.125 32.4687V27.0113L29.2457 27.6593C29.1796 27.7081 29.1046 27.7433 29.0249 27.763C28.9452 27.7828 28.8624 27.7866 28.7812 27.7744C28.7001 27.7621 28.6221 27.734 28.5518 27.6916C28.4815 27.6492 28.4202 27.5934 28.3715 27.5273C28.3228 27.4612 28.2875 27.3862 28.2678 27.3065C28.248 27.2268 28.2442 27.144 28.2564 27.0628C28.2687 26.9817 28.2968 26.9037 28.3392 26.8334C28.3816 26.7631 28.4374 26.7018 28.5035 26.6531L30.1996 25.4031C30.307 25.3239 30.4369 25.2812 30.5703 25.2812H30.75C30.9158 25.2812 31.0747 25.347 31.1919 25.4643C31.3092 25.5815 31.375 25.7404 31.375 25.9062V32.4687Z" fill="#2A2F9E"/>
</svg>
