<svg width="53" height="54" viewBox="0 0 53 54" fill="none" xmlns="http://www.w3.org/2000/svg">
<circle cx="26.75" cy="26.8154" r="26.25" fill="#DDDEFF"/>
<path d="M31.375 24H30.75V20.875C30.75 19.8804 30.3549 18.9266 29.6517 18.2233C28.9484 17.5201 27.9946 17.125 27 17.125C26.0054 17.125 25.0516 17.5201 24.3483 18.2233C23.6451 18.9266 23.25 19.8804 23.25 20.875V24H22.625C21.9622 24.0007 21.3267 24.2643 20.858 24.733C20.3893 25.2017 20.1257 25.8372 20.125 26.5V33.375C20.1257 34.0378 20.3893 34.6733 20.858 35.142C21.3267 35.6107 21.9622 35.8743 22.625 35.875H31.375C32.0378 35.8743 32.6733 35.6107 33.142 35.142C33.6107 34.6733 33.8743 34.0378 33.875 33.375V26.5C33.8743 25.8372 33.6107 25.2017 33.142 24.733C32.6733 24.2643 32.0378 24.0007 31.375 24ZM29.5 24H24.5V20.875C24.5 20.212 24.7634 19.5761 25.2322 19.1072C25.7011 18.6384 26.337 18.375 27 18.375C27.663 18.375 28.2989 18.6384 28.7678 19.1072C29.2366 19.5761 29.5 20.212 29.5 20.875V24Z" fill="#2A2F9E"/>
</svg>
